<svg width="117" height="117" viewBox="0 0 117 117" fill="none" xmlns="http://www.w3.org/2000/svg">
<g id="fluent-emoji-flat:dollar-banknote">
<g id="Group">
<path id="Vector" d="M7.3125 36.5625C7.3125 34.6231 8.08292 32.7631 9.45428 31.3918C10.8256 30.0204 12.6856 29.25 14.625 29.25H54.8438L62.1562 32.9062L69.4688 29.25H102.375C104.314 29.25 106.174 30.0204 107.546 31.3918C108.917 32.7631 109.688 34.6231 109.688 36.5625V87.75C109.688 89.6894 108.917 91.5494 107.546 92.9207C106.174 94.2921 104.314 95.0625 102.375 95.0625H14.625C12.6856 95.0625 10.8256 94.2921 9.45428 92.9207C8.08292 91.5494 7.3125 89.6894 7.3125 87.75V36.5625Z" fill="#00F397"/>
<path id="Vector_2" d="M10.9688 40.2188C10.9688 38.2794 11.7392 36.4194 13.1105 35.048C14.4819 33.6767 16.3419 32.9062 18.2812 32.9062H98.7188C100.658 32.9062 102.518 33.6767 103.889 35.048C105.261 36.4194 106.031 38.2794 106.031 40.2188V84.0938C106.031 86.0331 105.261 87.8931 103.889 89.2645C102.518 90.6358 100.658 91.4062 98.7188 91.4062H18.2812C16.3419 91.4062 14.4819 90.6358 13.1105 89.2645C11.7392 87.8931 10.9688 86.0331 10.9688 84.0938V40.2188ZM18.2812 36.5625C17.3116 36.5625 16.3816 36.9477 15.6959 37.6334C15.0102 38.3191 14.625 39.2491 14.625 40.2188V84.0938C14.625 85.0634 15.0102 85.9934 15.6959 86.6791C16.3816 87.3648 17.3116 87.75 18.2812 87.75H98.7188C99.6884 87.75 100.618 87.3648 101.304 86.6791C101.99 85.9934 102.375 85.0634 102.375 84.0938V40.2188C102.375 39.2491 101.99 38.3191 101.304 37.6334C100.618 36.9477 99.6884 36.5625 98.7188 36.5625H18.2812ZM7.3125 102.375C7.3125 104.314 8.08292 106.174 9.45428 107.546C10.8256 108.917 12.6856 109.688 14.625 109.688H54.8438L62.1562 106.031L69.4688 109.688H102.375C104.314 109.688 106.174 108.917 107.546 107.546C108.917 106.174 109.688 104.314 109.688 102.375V87.75C109.688 89.6894 108.917 91.5494 107.546 92.9207C106.174 94.2921 104.314 95.0625 102.375 95.0625H14.625C12.6856 95.0625 10.8256 94.2921 9.45428 92.9207C8.08292 91.5494 7.3125 89.6894 7.3125 87.75V102.375ZM95.0625 62.1562C95.0625 66.5199 93.329 70.7048 90.2435 73.7904C87.1579 76.8759 82.973 78.6094 78.6094 78.6094C74.2457 78.6094 70.0608 76.8759 66.9753 73.7904C63.8897 70.7048 62.1562 66.5199 62.1562 62.1562C62.1562 57.7926 63.8897 53.6077 66.9753 50.5221C70.0608 47.4366 74.2457 45.7031 78.6094 45.7031C82.973 45.7031 87.1579 47.4366 90.2435 50.5221C93.329 53.6077 95.0625 57.7926 95.0625 62.1562Z" fill="#008463"/>
<path id="Vector_3" d="M69.4688 29.25H54.8438V98.7188H69.4688V29.25Z" fill="#FFF478"/>
<path id="Vector_4" d="M69.4688 95.0625H54.8438V109.688H69.4688V95.0625Z" fill="#F3AD61"/>
<path id="Vector_5" d="M34.7344 43.875C35.2192 43.875 35.6842 44.0676 36.0271 44.4104C36.3699 44.7533 36.5625 45.2183 36.5625 45.7031V47.6958C39.6118 48.2515 42.109 50.1747 43.2315 52.7231C43.7068 53.7981 42.7854 54.8438 41.6118 54.8438C40.7197 54.8438 39.9738 54.2112 39.4656 53.48C38.5734 52.1857 36.9281 51.1875 34.7344 51.1875C31.3341 51.1875 29.25 53.586 29.25 55.7578C29.25 57.9296 31.3341 60.3281 34.7344 60.3281C39.78 60.3281 43.875 64.01 43.875 68.5547C43.875 72.5327 40.7343 75.8562 36.5625 76.6167V78.6094C36.5625 79.0942 36.3699 79.5592 36.0271 79.9021C35.6842 80.2449 35.2192 80.4375 34.7344 80.4375C34.2495 80.4375 33.7845 80.2449 33.4417 79.9021C33.0989 79.5592 32.9062 79.0942 32.9062 78.6094V76.6167C29.8569 76.061 27.3597 74.1378 26.2373 71.5894C25.7619 70.5144 26.6833 69.4688 27.857 69.4688C28.7491 69.4688 29.495 70.1013 30.0032 70.8325C30.8917 72.1268 32.5406 73.125 34.7344 73.125C38.1347 73.125 40.2188 70.7265 40.2188 68.5547C40.2188 66.3829 38.1347 63.9844 34.7344 63.9844C29.6887 63.9844 25.5938 60.3025 25.5938 55.7578C25.5938 51.7798 28.7345 48.4599 32.9062 47.6958V45.7031C32.9062 45.2183 33.0989 44.7533 33.4417 44.4104C33.7845 44.0676 34.2495 43.875 34.7344 43.875Z" fill="white"/>
</g>
</g>
</svg>
