<svg width="128" height="128" viewBox="0 0 128 128" fill="none" xmlns="http://www.w3.org/2000/svg">
<g id="noto:money-bag">
<path id="Vector" d="M93.4598 39.45C100.17 37.96 108.91 31.3 110.24 28.02C111.02 26.1 107.13 23.1 106.09 21.89C103.71 19.13 104.67 17.77 105.59 14.48C106.64 10.74 104.15 6.60999 100.62 4.98999C97.0898 3.36999 92.8698 3.87999 89.3198 5.45999C85.7698 7.03999 82.7398 9.57999 79.7698 12.08C77.5998 10.71 74.1398 4.65999 68.5398 8.58999C64.6698 11.3 64.3198 17.2 64.8198 21.91C65.9898 32.78 68.6698 38.42 73.7198 39.94C80.0998 41.86 87.1598 40.85 93.4598 39.45Z" fill="#FFCA28"/>
<path id="Vector_2" d="M104.36 8.17999C103.51 22.83 89.2204 32.55 82.4404 36.83L86.8404 40.61C86.8404 40.61 89.6304 40.67 93.4504 39.45C100 37.37 109.57 31.49 110.23 28.02C111.2 22.97 106.02 24.07 104.85 20.08C104.24 17.97 107.82 13.98 104.36 8.17999ZM79.7804 12.09C79.7804 12.09 77.2304 9.47999 75.3404 8.28999C74.4004 10.06 73.7304 11.98 73.4004 13.96C72.8104 17.44 73.4004 22.38 74.7904 26.06C75.0104 26.63 75.8304 26.54 75.9204 25.94C77.1204 18.03 79.7804 12.09 79.7804 12.09Z" fill="#E2A610"/>
<path id="Vector_3" d="M61.9602 38.16C61.9602 38.16 30.7702 41.53 16.7002 68.61C2.63017 95.69 14.5902 112.11 27.2502 118.09C39.9102 124.07 71.8102 126.18 92.5602 121.26C113.31 116.34 118.5 106.14 117.53 96.29C116.12 81.91 102.76 73.07 102.76 73.07C102.76 73.07 103.29 55.31 89.5102 43.78C77.2802 33.54 61.9602 38.16 61.9602 38.16Z" fill="#FFCA28"/>
<path id="Vector_4" d="M74.7603 83.73C68.0702 75.29 60.1702 74.16 57.6402 71.13C56.2602 69.48 55.4502 67.81 55.7602 65.74C56.0902 63.54 58.6402 62.02 60.6202 61.65C62.9302 61.21 68.4402 61.44 73.0702 65.85C74.1702 66.89 73.7702 68.51 73.7402 69.96C73.6602 73.07 78.1102 76.09 81.7102 73.49C85.3202 70.88 82.5502 65.07 80.2202 62.25C78.4603 60.12 72.0802 55.43 64.1502 54.69C61.9202 54.48 52.9502 53.15 47.7702 63C46.2802 65.83 45.7302 72.67 53.5302 78.45C55.1602 79.66 63.6202 83.96 65.9702 86.75C70.0402 91.58 67.2502 95.83 64.0702 96.39C55.4002 97.91 50.4902 93.22 49.5802 90.65C48.9303 88.82 49.6102 86.84 48.7702 85.12C47.9102 83.35 46.1502 82.65 44.2902 83.24C38.1902 85.18 40.1302 91.85 42.8302 95.52C45.7202 99.45 49.2702 101.82 53.2602 103.12C68.1502 107.97 75.3102 100.31 76.5602 94.7C77.4802 90.59 77.3802 87.03 74.7603 83.73Z" fill="#6B4B46"/>
<path id="Vector_5" d="M71.1596 48.99C58.4896 76.05 56.3096 110.22 56.3096 110.22" stroke="#6B4B46" stroke-width="5" stroke-miterlimit="10"/>
<path id="Vector_6" d="M81.6699 31.96C90.1099 34.71 91.9799 42.34 91.3699 44.42C90.6399 46.86 81.2899 37.36 67.3899 37.93C62.5299 38.13 63.9399 35.15 66.1899 33.43C69.1599 31.16 74.1499 29.52 81.6699 31.96Z" fill="#6D4C41"/>
<path id="Vector_7" d="M81.6699 31.96C90.1099 34.71 91.9799 42.34 91.3699 44.42C90.6399 46.86 81.2899 37.36 67.3899 37.93C62.5299 38.13 63.9399 35.15 66.1899 33.43C69.1599 31.16 74.1499 29.52 81.6699 31.96Z" fill="#6B4B46"/>
<path id="Vector_8" d="M96.4897 58.86C97.5497 58.13 101.11 59.39 102.11 66.36C102.6 69.77 102.75 73.07 102.75 73.07C102.75 73.07 98.5497 69.3 97.1597 66.65C95.4097 63.3 94.7297 60.06 96.4897 58.86Z" fill="#E2A610"/>
</g>
</svg>
