<svg width="128" height="128" viewBox="0 0 128 128" fill="none" xmlns="http://www.w3.org/2000/svg">
<g id="noto-v1:shopping-cart">
<path id="Vector" d="M95.8398 41.06L86.6298 42.03L90.6498 22.39C91.0108 20.6203 91.845 18.9817 93.0636 17.6486C94.2822 16.3156 95.8396 15.338 97.5698 14.82L116.06 9.26002C119.73 8.16002 123.43 10.9 123.43 14.74C123.43 18.35 119.84 20.87 116.45 19.64L113.88 19.06L103.52 22.13C102.512 22.4298 101.601 22.9882 100.877 23.7497C100.152 24.5111 99.6394 25.449 99.3898 26.47L95.8398 41.06ZM86.2898 82.75L79.8798 110L72.0898 107.25L76.8898 82.75H86.2898Z" fill="#65878D"/>
<path id="Vector_2" d="M81.7598 102H18.8398V110.33H80.3398L81.7598 102Z" fill="#65878D"/>
<path id="Vector_3" d="M1.95025 48.08L9.36025 84.2C9.93025 87 12.3902 89 15.2402 89H83.7603C84.2127 89.0003 84.6518 88.8472 85.006 88.5656C85.3602 88.2841 85.6085 87.8908 85.7103 87.45L97.7303 35.44C98.0403 34.11 96.9603 32.88 95.6003 33L7.29025 40.9C6.44868 40.975 5.63246 41.227 4.89511 41.6395C4.15776 42.052 3.51593 42.6157 3.01172 43.2937C2.5075 43.9716 2.15228 44.7485 1.96935 45.5734C1.78642 46.3982 1.77991 47.2524 1.95025 48.08ZM15.9002 49.17L20.1602 48.79C20.5754 48.7526 20.9939 48.8022 21.3888 48.9355C21.7838 49.0688 22.1467 49.2829 22.4543 49.5642C22.762 49.8455 23.0076 50.1878 23.1757 50.5693C23.3437 50.9508 23.4304 51.3631 23.4302 51.78V56.6C23.4302 58.26 22.0902 59.6 20.4302 59.6H15.9502C14.5302 59.6 13.3002 58.6 13.0102 57.2L12.3502 53.96C12.2336 53.4086 12.2354 52.8387 12.3554 52.288C12.4755 51.7374 12.7111 51.2184 13.0467 50.7656C13.3823 50.3128 13.8102 49.9364 14.3021 49.6614C14.794 49.3863 15.3388 49.2188 15.9002 49.17ZM54.1102 67.59H59.7902C61.4502 67.59 62.7902 68.93 62.7902 70.59V77C62.7902 78.66 61.4502 80 59.7902 80H54.1102C52.4502 80 51.1102 78.66 51.1102 77V70.59C51.1102 68.93 52.4502 67.59 54.1102 67.59ZM59.7902 59.59H54.1102C52.4502 59.59 51.1102 58.25 51.1102 56.59V48.76C51.1102 47.21 52.3002 45.91 53.8402 45.77L59.5202 45.26C59.9354 45.2226 60.3539 45.2722 60.7488 45.4055C61.1438 45.5388 61.5067 45.7529 61.8143 46.0342C62.122 46.3155 62.3676 46.6578 62.5357 47.0393C62.7037 47.4208 62.7904 47.8331 62.7902 48.25V56.59C62.7902 58.25 61.4502 59.59 59.7902 59.59ZM43.1102 70.59V77C43.1102 78.66 41.7702 80 40.1102 80H34.4302C32.7702 80 31.4302 78.66 31.4302 77V70.59C31.4302 68.93 32.7702 67.59 34.4302 67.59H40.1102C41.7702 67.59 43.1102 68.93 43.1102 70.59ZM40.1102 59.59H34.4302C32.7702 59.59 31.4302 58.25 31.4302 56.59V50.52C31.4302 48.97 32.6202 47.67 34.1602 47.53L39.8402 47.02C40.2554 46.9826 40.6739 47.0322 41.0688 47.1655C41.4638 47.2988 41.8267 47.5129 42.1343 47.7942C42.442 48.0755 42.6876 48.4178 42.8557 48.7993C43.0237 49.1808 43.1104 49.5931 43.1102 50.01V56.59C43.1102 58.25 41.7702 59.59 40.1102 59.59ZM85.8503 46.85L83.4403 57.26C83.2876 57.9199 82.9157 58.5086 82.3854 58.93C81.8551 59.3513 81.1976 59.5805 80.5202 59.58H73.7903C72.1302 59.58 70.7903 58.24 70.7903 56.58V47C70.7903 45.45 71.9802 44.15 73.5202 44.01L82.6503 43.19C84.6903 43.01 86.3102 44.87 85.8503 46.85ZM75.0103 80H72.8003C71.7003 80 70.8003 79.1 70.8003 78V70.59C70.8003 68.93 72.1403 67.59 73.8003 67.59H77.2903C79.2203 67.59 80.6503 69.39 80.2103 71.27L78.9103 76.91C78.7031 77.789 78.2053 78.5722 77.4975 79.133C76.7897 79.6938 75.9133 79.9993 75.0103 80ZM15.7502 70.56C15.4302 69.02 16.6102 67.58 18.1802 67.58H20.4302C22.0902 67.58 23.4302 68.92 23.4302 70.58V77.51C23.4302 78.1677 23.169 78.7985 22.7039 79.2636C22.2388 79.7287 21.608 79.99 20.9502 79.99C19.0502 79.99 17.4102 78.65 17.0302 76.79L15.7502 70.56Z" fill="#FFCA28"/>
<path id="Vector_4" d="M75.54 117.33C81.6152 117.33 86.54 112.405 86.54 106.33C86.54 100.255 81.6152 95.33 75.54 95.33C69.4649 95.33 64.54 100.255 64.54 106.33C64.54 112.405 69.4649 117.33 75.54 117.33Z" fill="#2F2F2F"/>
<path id="Vector_5" d="M75.5402 111.46C78.3734 111.46 80.6702 109.163 80.6702 106.33C80.6702 103.497 78.3734 101.2 75.5402 101.2C72.7069 101.2 70.4102 103.497 70.4102 106.33C70.4102 109.163 72.7069 111.46 75.5402 111.46Z" fill="#65878D"/>
<path id="Vector_6" d="M22.7002 117.33C28.7753 117.33 33.7002 112.405 33.7002 106.33C33.7002 100.255 28.7753 95.33 22.7002 95.33C16.6251 95.33 11.7002 100.255 11.7002 106.33C11.7002 112.405 16.6251 117.33 22.7002 117.33Z" fill="#2F2F2F"/>
<path id="Vector_7" d="M22.7003 111.46C25.5335 111.46 27.8303 109.163 27.8303 106.33C27.8303 103.497 25.5335 101.2 22.7003 101.2C19.8671 101.2 17.5703 103.497 17.5703 106.33C17.5703 109.163 19.8671 111.46 22.7003 111.46Z" fill="#65878D"/>
<path id="Vector_8" d="M118.59 23.66C122.682 23.66 126 20.3425 126 16.25C126 12.1576 122.682 8.84003 118.59 8.84003C114.497 8.84003 111.18 12.1576 111.18 16.25C111.18 20.3425 114.497 23.66 118.59 23.66Z" fill="#65878D"/>
</g>
</svg>
