<svg xmlns="http://www.w3.org/2000/svg" width="110" height="108" viewBox="0 0 110 108" fill="none">
			 <path d="M50.41 72.3802C48.23 73.8162 45.99 74.1014 43.82 72.449C41.66 70.8065 41.4601 68.5739 42.3001 65.8199C39.4701 66.4199 36.9201 66.4101 35.2501 63.9217C33.8201 61.7973 34.16 59.7121 35.58 57.7057C35.76 57.5385 35.93 57.3713 36.11 57.2041C37.12 56.4861 38.3 55.7977 39.47 56.0239C41.62 56.4468 41.23 55.4633 41.34 53.9781C41.5 51.9225 41.2801 51.0767 38.9301 51.4111C38.0801 51.5291 37.1 50.7816 36.17 50.4275C35.92 50.1816 35.6801 49.9456 35.4301 49.6997C34.1801 47.6539 33.8001 45.559 35.3101 43.4837C36.9801 41.1822 39.35 40.9855 42.26 41.7527C41.52 38.9397 41.63 36.4711 44.15 34.8384C46.3 33.4417 48.4101 33.7958 50.4401 35.1728C50.6101 35.3498 50.78 35.517 50.95 35.6941C51.36 36.6973 52.26 37.7694 52.1 38.6742C51.68 41.1134 52.86 40.6708 54.58 40.8085C56.65 40.9757 56.83 40.4249 56.77 38.684C56.74 37.7005 57.5201 36.6875 57.9401 35.6941C58.1201 35.5072 58.3101 35.3301 58.4901 35.1433C60.6601 33.6483 62.89 33.3926 65.07 35.0154C67.24 36.6383 67.5 38.8709 66.66 41.6051C69.42 41.133 72.0001 41.015 73.6801 43.5231C75.1101 45.6475 74.7901 47.7228 73.4301 49.7489C73.2201 49.9554 73.0101 50.162 72.8001 50.3587C71.7701 50.7521 70.69 51.5684 69.72 51.4603C67.62 51.2242 67.64 51.9618 67.67 53.7125C67.7 55.4042 67.59 56.2304 69.73 55.9944C70.7 55.8862 71.7801 56.7025 72.8001 57.1058C73.0101 57.3123 73.2301 57.5188 73.4401 57.7352C74.8901 59.8695 75.18 62.0628 73.51 64.1873C71.86 66.2921 69.63 66.6264 66.83 65.7314C67.4 68.5739 67.3 71.1606 64.64 72.7933C62.59 74.0424 60.5601 73.6981 58.6201 72.4785C58.3601 72.2228 58.09 71.9573 57.83 71.7015C56.8 70.2065 56.54 68.5247 56.82 66.774C53.89 66.4494 51.4501 66.5281 51.7501 70.3541C51.7901 70.8163 51.27 71.3081 51.01 71.79C50.8 71.9966 50.61 72.1933 50.41 72.3802ZM64.46 63.5873C62.78 62.5841 66.3101 59.4269 62.5601 59.4171C60.6401 59.4073 60.2 60.0564 60.21 61.7973C60.24 65.4462 63.4 61.9841 64.46 63.5873ZM44.5501 63.6267C45.5801 62.2399 49.3301 65.5249 48.6801 61.0203C48.1601 57.4402 45.85 60.2629 44.57 59.3384C45.09 60.8334 44.5401 62.0825 44.5501 63.6267ZM64.59 43.9951C60.15 44.4476 60.2601 44.4574 60.1301 45.4803C59.6901 49.0014 62.4001 47.8015 64.5001 48.3523C63.8701 46.7196 64.35 45.3819 64.59 43.9951ZM44.51 43.7985C44.76 45.3918 44.91 46.7491 44.67 48.2932C45.89 47.2114 48.35 49.8767 48.76 46.336C49.27 41.9494 45.5 45.4311 44.51 43.7985ZM52.7501 53.4863C52.8201 54.4207 52.1101 55.7485 54.0501 55.3846C55.0301 55.1977 56.3001 55.8862 56.1301 53.8699C56.0201 52.5028 55.9501 51.9717 54.3601 52.07C53.17 52.1487 52.3101 52.0307 52.7501 53.4863Z" fill="#FC8400"/>
			 <path d="M50.9501 35.704C50.7801 35.527 50.6101 35.3598 50.4401 35.1828C50.4101 34.9664 50.4401 34.7205 50.3501 34.5336C49.2201 32.0846 49.1801 29.7635 51.5001 27.9734C53.3801 26.5178 55.5101 26.5079 57.4001 27.9537C59.7301 29.7241 59.7001 32.0551 58.5901 34.5041C58.5001 34.7008 58.5201 34.9369 58.4901 35.1532C58.3101 35.3401 58.1201 35.5172 57.9401 35.704C55.6101 36.6482 53.2801 36.6187 50.9501 35.704Z" fill="#FC8400"/>
			 <path d="M73.43 57.755C73.22 57.5484 73 57.3419 72.79 57.1255C71.81 54.8732 71.83 52.6307 72.79 50.3784C73 50.1719 73.21 49.9653 73.42 49.7686C74.16 49.5424 74.89 49.2572 75.65 49.1195C77.81 48.7162 79.67 49.2277 80.91 51.1161C82.04 52.8373 82.04 54.6568 80.92 56.3878C79.68 58.2762 77.83 58.7975 75.67 58.4041C74.91 58.2664 74.18 57.9714 73.43 57.755Z" fill="#FC8400"/>
			 <path d="M57.81 71.7112C58.07 71.9768 58.34 72.2325 58.6 72.4882C58.74 73.0193 58.89 73.5406 59.03 74.0717C59.63 76.3142 59.27 78.3108 57.24 79.6976C55.38 80.9565 53.38 80.9368 51.55 79.6287C49.56 78.2026 49.24 76.1962 49.91 73.9635C50.07 73.4324 50.24 72.9112 50.4 72.3899C50.59 72.1932 50.79 72.0063 50.98 71.8096C53.25 70.8654 55.53 70.8851 57.81 71.7112Z" fill="#FC8400"/>
			 <path d="M36.1 57.2138C35.92 57.381 35.75 57.5482 35.57 57.7154C32.84 58.5711 30.1001 59.3382 28.0601 56.4466C26.8701 54.7647 26.8501 52.9255 27.9801 51.1945C29.9201 48.234 32.6701 48.893 35.4301 49.7094C35.6801 49.9552 35.9201 50.1913 36.1701 50.4372C37.0801 52.7092 36.99 54.9614 36.1 57.2138Z" fill="#FC8400"/>
			 <path d="M81.53 68.3575C81.58 70.8458 79.31 73.0883 76.78 73.0392C74.38 72.99 72.24 70.895 72.19 68.5345C72.14 66.0363 74.4 63.8037 76.94 63.8528C79.34 63.902 81.48 65.997 81.53 68.3575Z" fill="#FC8400"/>
			 <path d="M32.1 73C29.6 73.0295 27.35 70.7772 27.43 68.3183C27.5 65.9775 29.64 63.912 32.02 63.8924C34.52 63.8629 36.7701 66.1152 36.6901 68.574C36.6101 70.9149 34.48 72.9803 32.1 73Z" fill="#FC8400"/>
			 <path d="M44.17 75.6358C44.27 78.0946 42.04 80.3666 39.52 80.3666C37.14 80.3666 34.9801 78.311 34.8801 75.9603C34.7801 73.5015 37.01 71.2295 39.53 71.2295C41.91 71.2295 44.07 73.2753 44.17 75.6358Z" fill="#FC8400"/>
			 <path d="M76.6 43.651C74.07 43.4936 71.97 41.0938 72.22 38.6546C72.47 36.2843 74.75 34.3467 77.12 34.4942C79.65 34.6516 81.76 37.0514 81.5 39.4906C81.25 41.8609 78.96 43.7985 76.6 43.651Z" fill="#FC8400"/>
			 <path d="M31.8899 34.5136C34.2499 34.4251 36.48 36.3922 36.67 38.7428C36.87 41.182 34.7299 43.5229 32.2099 43.6212C29.7099 43.7196 27.41 41.5263 27.42 39.0576C27.43 36.7266 29.5099 34.612 31.8899 34.5136Z" fill="#FC8400"/>
			 <path d="M74.05 31.7499C74.04 34.2383 71.72 36.4217 69.2 36.3135C66.8 36.2053 64.72 34.071 64.73 31.7105C64.74 29.2222 67.07 27.0387 69.58 27.1469C71.98 27.2551 74.06 29.3992 74.05 31.7499Z" fill="#FC8400"/>
			 <path d="M39.5401 27.1764C42.0501 27.1862 44.27 29.468 44.15 31.9171C44.04 34.2677 41.8701 36.2938 39.5001 36.284C36.9901 36.2742 34.77 33.9924 34.89 31.5433C35 29.1927 37.1701 27.1567 39.5401 27.1764Z" fill="#FC8400"/>
			 <path d="M74.05 75.7339C74.08 78.2124 71.8 80.4352 69.28 80.3663C66.88 80.2975 64.77 78.2025 64.74 75.842C64.71 73.3537 66.98 71.1407 69.51 71.2096C71.91 71.2784 74.01 73.3734 74.05 75.7339Z" fill="#FC8400"/>
			 <path d="M42.67 82.8746C43.05 80.2879 44.5301 78.9011 47.1801 78.9306C49.7101 78.9601 51.5601 81.0748 51.2401 83.573C50.9001 86.1892 49.2401 87.4973 46.6301 87.3104C43.9501 87.1235 42.75 85.422 42.67 82.8746Z" fill="#FC8400"/>
			 <path d="M84.32 65.3772C81.69 65.151 80.15 63.8035 80.02 61.1774C79.9 58.6792 81.96 56.6925 84.5 56.8794C87.15 57.0761 88.65 58.6006 88.61 61.1971C88.56 63.8232 86.94 65.1608 84.32 65.3772Z" fill="#FC8400"/>
			 <path d="M28.8701 61.0595C28.6701 63.6462 27.3301 65.2396 24.6301 65.2593C21.9601 65.2789 20.3901 63.7938 20.3601 61.1579C20.3301 58.5318 21.85 56.9975 24.53 56.9582C27.23 56.909 28.6101 58.463 28.8701 61.0595Z" fill="#FC8400"/>
			 <path d="M66.27 83.091C66.08 85.6581 64.74 87.2711 62.07 87.3498C59.43 87.4285 57.8501 85.9728 57.6201 83.3664C57.4001 80.8682 59.4001 78.8225 61.9401 78.911C64.6101 78.9995 66 80.4945 66.27 83.091Z" fill="#FC8400"/>
			 <path d="M84.2501 50.6832C81.6101 50.4078 80.1 49.0308 80.02 46.4047C79.94 43.9065 82.05 41.9493 84.58 42.1853C87.23 42.4312 88.7 43.9852 88.6 46.5818C88.51 49.2078 86.8601 50.5061 84.2501 50.6832Z" fill="#FC8400"/>
			 <path d="M24.76 42.2051C27.39 42.5198 28.9101 43.9459 28.8101 46.5818C28.7101 49.2177 27.0801 50.6635 24.4201 50.5652C21.7401 50.4767 20.2801 48.8735 20.3601 46.2573C20.4501 43.6017 22.12 42.3428 24.76 42.2051Z" fill="#FC8400"/>
			 <path d="M51.3101 24.285C51.0301 27.0487 49.6301 28.5929 46.9301 28.5535C44.2401 28.5142 42.7201 26.9602 42.7501 24.3243C42.7801 21.6786 44.3701 20.1934 47.0501 20.2131C49.7701 20.2229 51.0601 21.8753 51.3101 24.285Z" fill="#FC8400"/>
			 <path d="M66.24 24.4323C65.99 27.0092 64.61 28.5042 61.95 28.5927C59.41 28.6813 57.44 26.665 57.65 24.1668C57.87 21.5604 59.43 20.1244 62.06 20.1933C64.73 20.2621 66.05 21.8653 66.24 24.4323Z" fill="#FC8400"/>
			 <path d="M32.17 87.0052C29.82 86.7397 28.26 85.5299 28.21 83.2186C28.16 80.9073 29.64 79.4123 31.97 79.3533C34.31 79.2943 35.84 80.7598 35.9 83.0514C35.96 85.3726 34.43 86.6217 32.17 87.0052Z" fill="#FC8400"/>
			 <path d="M54.5201 94.3722C52.2101 94.1066 50.6401 92.887 50.5901 90.5659C50.5401 88.2447 52.0301 86.7399 54.3701 86.6809C56.7301 86.6219 58.2601 88.0972 58.3201 90.3987C58.3901 92.7297 56.8501 93.9984 54.5201 94.3722Z" fill="#FC8400"/>
			 <path d="M92.07 49.8867C94.16 50.2211 95.58 51.4506 95.71 53.7619C95.82 55.847 93.6301 57.8829 91.5401 57.6075C89.2501 57.3026 87.9101 55.8962 87.8801 53.5947C87.8501 51.6178 89.89 49.8376 92.07 49.8867Z" fill="#FC8400"/>
			 <path d="M21.0401 53.7323C20.6601 56.1026 19.3801 57.5877 17.0301 57.5287C14.7001 57.4697 13.2301 55.9747 13.2901 53.6831C13.3501 51.3914 14.8701 49.9555 17.2001 50.0046C19.5601 50.0341 20.7401 51.6078 21.0401 53.7323Z" fill="#FC8400"/>
			 <path d="M54.4001 13.1807C56.7001 13.4462 58.2601 14.656 58.3001 16.9673C58.3401 19.2786 56.8601 20.7736 54.5301 20.8228C52.1801 20.872 50.6701 19.4065 50.6101 17.1148C50.5501 14.7937 52.0801 13.5347 54.4001 13.1807Z" fill="#FC8400"/>
			 <path d="M35.96 24.3244C35.7 26.5767 34.48 28.1012 32.14 28.1504C29.8 28.1996 28.29 26.7538 28.23 24.472C28.17 22.1803 29.65 20.6853 31.97 20.6263C34.32 20.5575 35.6 22.0426 35.96 24.3244Z" fill="#FC8400"/>
			 <path d="M80.81 83.2089C80.43 85.5005 79.14 87.0053 76.77 86.9463C74.43 86.8775 72.93 85.3727 72.99 83.0515C73.05 80.75 74.59 79.2845 76.94 79.3337C79.31 79.3829 80.54 80.9369 80.81 83.2089Z" fill="#FC8400"/>
			 <path d="M76.7901 20.4985C79.1001 20.7641 80.6701 21.9837 80.7201 24.3048C80.7701 26.626 79.2801 28.1308 76.9301 28.1898C74.5701 28.2489 73.0401 26.7735 72.9801 24.4721C72.9301 22.1312 74.4701 20.8723 76.7901 20.4985Z" fill="#FC8400"/>
			 <path d="M24.5501 71.9375C26.9601 72.3014 28.4701 73.5603 28.4201 75.8717C28.3601 78.1633 26.8501 79.6091 24.5101 79.5599C22.1901 79.5108 20.7201 78.0158 20.7601 75.7143C20.8001 73.403 22.3901 72.2424 24.5501 71.9375Z" fill="#FC8400"/>
			 <path d="M84.3801 35.6153C82.0701 35.34 80.5 34.1204 80.46 31.7992C80.42 29.478 81.9101 27.9732 84.2501 27.924C86.6101 27.8749 88.1301 29.3502 88.1901 31.6517C88.2501 33.9827 86.7101 35.2514 84.3801 35.6153Z" fill="#FC8400"/>
			 <path d="M28.5001 31.6126C28.2301 33.9141 27.0101 35.4484 24.6701 35.4877C22.3301 35.5369 20.82 34.0911 20.76 31.7995C20.71 29.5078 22.18 28.0128 24.51 27.9538C26.86 27.9046 28.1201 29.4095 28.5001 31.6126Z" fill="#FC8400"/>
			 <path d="M88.29 75.8817C87.91 78.134 86.65 79.5306 84.31 79.6486C82.18 79.7568 80.12 77.5832 80.42 75.5374C80.74 73.2851 82.18 71.859 84.51 71.977C86.82 72.0852 88.05 73.6195 88.29 75.8817Z" fill="#FC8400"/>
			 <path d="M91.9 35.5366C94.19 35.7727 95.44 37.0119 95.33 39.2642C95.21 41.546 93.7701 42.687 91.5001 42.5493C89.3701 42.4214 88.2101 41.1231 88.2401 39.038C88.2801 36.7562 89.64 35.6546 91.9 35.5366Z" fill="#FC8400"/>
			 <path d="M91.89 72.0165C89.5 71.8001 88.19 70.6396 88.23 68.3971C88.26 66.1644 89.58 64.9153 91.85 64.9448C94.12 64.9744 95.38 66.2726 95.37 68.4954C95.35 70.7674 93.94 71.8198 91.89 72.0165Z" fill="#FC8400"/>
			 <path d="M16.97 71.9475C14.71 71.7016 13.4801 70.4624 13.6101 68.2297C13.7401 65.9676 15.1801 64.8562 17.4201 65.0037C19.5301 65.1414 20.6601 66.4298 20.6201 68.5051C20.5901 70.7771 19.22 71.8393 16.97 71.9475Z" fill="#FC8400"/>
			 <path d="M69.39 13.5249C71.65 13.7019 72.97 14.8527 72.92 17.1148C72.87 19.3868 71.51 20.5769 69.23 20.4982C67.11 20.4294 65.9 19.2098 65.87 17.1148C65.83 14.8625 67.12 13.7019 69.39 13.5249Z" fill="#FC8400"/>
			 <path d="M17.3501 42.5787C14.9601 42.441 13.6101 41.3394 13.6101 39.0772C13.6201 36.8249 14.9201 35.5955 17.2001 35.625C19.3101 35.6447 20.5401 36.8249 20.6301 38.9101C20.7301 41.1722 19.4301 42.3131 17.3501 42.5787Z" fill="#FC8400"/>
			 <path d="M73 90.4873C72.73 92.8674 71.46 94.0969 69.17 93.969C66.85 93.8412 65.71 92.4052 65.86 90.1824C66 88.0874 67.33 86.9662 69.45 86.9957C71.79 87.0252 72.83 88.4317 73 90.4873Z" fill="#FC8400"/>
			 <path d="M39.64 94.0084C37.22 93.8018 35.93 92.6216 36 90.3693C36.07 88.0973 37.45 86.9269 39.72 87.0154C41.84 87.0941 43.02 88.3432 43.05 90.4283C43.09 92.7298 41.71 93.8018 39.64 94.0084Z" fill="#FC8400"/>
			 <path d="M43.08 17.1837C42.83 19.4065 41.5701 20.6163 39.3001 20.4884C37.0001 20.3605 35.87 18.9442 36.02 16.7411C36.16 14.6658 37.47 13.5544 39.58 13.5938C41.89 13.6331 42.97 14.9707 43.08 17.1837Z" fill="#FC8400"/>
			 <path d="M99.23 64.2955C97.19 63.9021 95.93 62.8005 96.1 60.8728C96.27 58.9942 97.59 57.8238 99.57 58.0205C101.34 58.1975 102.47 59.4073 102.41 61.1875C102.35 63.1251 101.01 64.0595 99.23 64.2955Z" fill="#FC8400"/>
			 <path d="M9.6601 64.1776C7.7601 63.9809 6.53008 62.9482 6.58008 61.0008C6.62008 59.2304 7.79009 58.0895 9.59009 58.0796C11.5601 58.0698 12.7601 59.2697 12.7301 61.2073C12.6901 62.9777 11.5201 63.9612 9.6601 64.1776Z" fill="#FC8400"/>
			 <path d="M61.8301 6.59082C63.5701 6.70885 64.8401 7.59405 65.0101 9.37426C65.2001 11.3413 64.0401 12.6298 62.0801 12.738C60.1101 12.8461 58.8401 11.6364 58.8201 9.689C58.8001 7.89895 59.9701 6.88588 61.8301 6.59082Z" fill="#FC8400"/>
			 <path d="M102.48 46.3064C102.29 48.1751 101.28 49.4832 99.32 49.5226C97.36 49.5619 96.12 48.3226 96.1 46.3949C96.08 44.6245 97.26 43.4246 99.03 43.3066C101 43.1787 102.11 44.3885 102.48 46.3064Z" fill="#FC8400"/>
			 <path d="M9.57008 43.3462C11.2901 43.4544 12.5401 44.3199 12.7101 46.1001C12.8901 48.0475 11.7701 49.3261 9.81013 49.4343C7.85013 49.5425 6.60009 48.3524 6.58009 46.4148C6.56009 44.6346 7.70008 43.6117 9.57008 43.3462Z" fill="#FC8400"/>
			 <path d="M50.1801 97.7556C49.9801 99.6145 48.97 100.893 47.01 100.903C45.07 100.913 43.84 99.6833 43.85 97.7654C43.85 96.0049 45.02 94.8345 46.79 94.7361C48.75 94.6378 49.8501 95.8278 50.1801 97.7556Z" fill="#FC8400"/>
			 <path d="M50.14 9.63999C50 11.371 49.06 12.6004 47.26 12.7381C45.28 12.8857 43.96 11.7349 43.89 9.79736C43.82 7.84994 45.07 6.63036 47.05 6.6402C48.87 6.65003 49.88 7.82043 50.14 9.63999Z" fill="#FC8400"/>
			 <path d="M61.93 100.972C60.01 100.726 58.74 99.6834 58.79 97.7655C58.84 95.8574 60.12 94.6772 62.07 94.746C63.84 94.805 65.02 95.9754 65.06 97.7262C65.1 99.6539 63.86 100.696 61.93 100.972Z" fill="#FC8400"/>
			 <path d="M91.76 85.953C89.92 85.8055 88.8801 84.8318 88.9701 82.9729C89.0501 81.2812 90.0801 80.3468 91.8001 80.3665C93.7001 80.3862 94.6901 81.4681 94.6201 83.3073C94.5501 85.0088 93.49 85.8448 91.76 85.953Z" fill="#FC8400"/>
			 <path d="M84.0601 14.2334C86.0601 14.3318 87.1501 15.2268 87.1301 17.0857C87.1101 18.7675 86.1501 19.7511 84.4401 19.7904C82.5701 19.8297 81.52 18.8364 81.52 16.9873C81.51 15.2759 82.5601 14.4596 84.0601 14.2334Z" fill="#FC8400"/>
			 <path d="M84.36 87.6646C86.09 87.8121 87.12 88.6776 87.15 90.3791C87.18 92.238 86.15 93.2707 84.26 93.2511C82.54 93.2314 81.54 92.2675 81.5 90.566C81.46 88.7071 82.53 87.7727 84.36 87.6646Z" fill="#FC8400"/>
			 <path d="M91.54 21.5605C93.54 21.6589 94.6401 22.5539 94.6201 24.4325C94.6001 26.1242 93.63 27.1176 91.91 27.1569C90.02 27.1962 88.97 26.193 88.97 24.3243C88.96 22.6129 90.01 21.7769 91.54 21.5605Z" fill="#FC8400"/>
			 <path d="M27.39 17.1051C27.22 18.7673 26.3401 19.7705 24.6101 19.7607C22.7101 19.7508 21.7201 18.6493 21.8301 16.8199C21.9301 15.138 23.0201 14.243 24.7301 14.3217C26.4601 14.4004 27.29 15.4331 27.39 17.1051Z" fill="#FC8400"/>
			 <path d="M17.23 80.3667C18.93 80.5536 19.94 81.4486 19.9 83.16C19.87 85.0582 18.72 86.0024 16.85 85.8745C15.12 85.7565 14.24 84.655 14.33 82.9633C14.44 81.2421 15.52 80.4355 17.23 80.3667Z" fill="#FC8400"/>
			 <path d="M79.52 9.60061C79.38 11.1153 78.57 12.1676 77.03 12.2463C75.31 12.3348 74.23 11.3021 74.25 9.62027C74.27 8.10561 75.29 7.14174 76.84 7.13191C78.41 7.12207 79.25 8.11546 79.52 9.60061Z" fill="#FC8400"/>
			 <path d="M34.7 9.70873C34.48 11.1939 33.66 12.2266 32.12 12.2364C30.43 12.2463 29.37 11.184 29.47 9.52186C29.56 8.04654 30.6 7.0925 32.14 7.15152C33.69 7.21053 34.49 8.22358 34.7 9.70873Z" fill="#FC8400"/>
			 <path d="M24.58 87.7036C26.29 87.8216 27.34 88.6773 27.37 90.3887C27.4 92.2673 26.33 93.2901 24.43 93.2115C22.7 93.1426 21.77 92.1 21.8 90.4084C21.84 88.6872 22.87 87.8315 24.58 87.7036Z" fill="#FC8400"/>
			 <path d="M99.2401 78.4488C97.6001 78.2226 96.5301 77.3374 96.6201 75.6358C96.7001 74.1212 97.7001 73.1672 99.2501 73.1868C100.96 73.2163 101.98 74.249 101.9 75.9407C101.84 77.4751 100.8 78.2717 99.2401 78.4488Z" fill="#FC8400"/>
			 <path d="M9.45001 73.1768C11.1 73.3538 12.16 74.1505 12.23 75.6455C12.3 77.3076 11.25 78.3698 9.55005 78.3305C8.03005 78.301 7.07006 77.288 7.06006 75.7831C7.06006 74.239 8.14001 73.5013 9.45001 73.1768Z" fill="#FC8400"/>
			 <path d="M17.23 27.1668C15.36 26.9701 14.34 26.0947 14.36 24.3932C14.38 22.5245 15.5 21.5508 17.36 21.6688C19.07 21.777 19.96 22.8589 19.89 24.5309C19.81 26.2619 18.69 26.9996 17.23 27.1668Z" fill="#FC8400"/>
			 <path d="M99.09 34.3663C97.5 34.0319 96.45 33.1172 96.64 31.4354C96.81 29.9699 97.8401 29.0257 99.3801 29.1437C101.06 29.2716 102.04 30.3535 101.87 32.0156C101.72 33.491 100.66 34.268 99.09 34.3663Z" fill="#FC8400"/>
			 <path d="M34.72 97.9327C34.44 99.4178 33.6 100.411 32.03 100.392C30.48 100.372 29.46 99.408 29.45 97.8835C29.44 96.1918 30.5201 95.1689 32.2401 95.2673C33.7801 95.3558 34.59 96.4082 34.72 97.9327Z" fill="#FC8400"/>
			 <path d="M76.68 95.1592C78.47 95.4051 79.55 96.2706 79.48 97.9524C79.42 99.4474 78.42 100.411 76.89 100.401C75.2 100.392 74.18 99.3589 74.23 97.6869C74.27 96.1722 75.37 95.4542 76.68 95.1592Z" fill="#FC8400"/>
			 <path d="M12.27 31.7992C11.98 33.304 11.13 34.3073 9.56002 34.2483C8.02002 34.1794 7.02999 33.1762 7.08999 31.6419C7.14999 30.1272 8.18001 29.1535 9.74001 29.2125C11.3 29.2617 12.1 30.3042 12.27 31.7992Z" fill="#FC8400"/>
			 <path d="M109.08 53.7029C108.93 55.1979 108.14 56.0535 106.7 56.0339C105.26 56.0142 104.4 55.1487 104.41 53.7324C104.43 52.3161 105.31 51.4702 106.75 51.4801C108.2 51.4997 108.93 52.3948 109.08 53.7029Z" fill="#FC8400"/>
			 <path d="M71.4401 104.906C71.3901 106.254 70.7901 107.031 69.6301 107.139C68.3101 107.267 67.43 106.578 67.39 105.241C67.34 103.913 68.1401 103.175 69.4901 103.195C70.6901 103.205 71.2301 104.011 71.4401 104.906Z" fill="#FC8400"/>
			 <path d="M52.16 105.211C52.37 103.627 53.22 102.85 54.65 102.968C56.11 103.086 56.8301 104.06 56.6901 105.457C56.5601 106.696 55.71 107.424 54.41 107.384C52.94 107.345 52.28 106.43 52.16 105.211Z" fill="#FC8400"/>
			 <path d="M41.55 105.152C41.41 106.401 40.73 107.178 39.4 107.119C38.25 107.07 37.54 106.342 37.54 105.211C37.54 103.913 38.33 103.165 39.65 103.214C40.8 103.263 41.4 104.011 41.55 105.152Z" fill="#FC8400"/>
			 <path d="M41.52 2.3617C41.36 3.49277 40.75 4.25994 39.58 4.26977C38.25 4.27961 37.46 3.46325 37.56 2.16498C37.65 1.05358 38.43 0.345428 39.62 0.414276C40.79 0.483124 41.39 1.24046 41.52 2.3617Z" fill="#FC8400"/>
			 <path d="M56.7001 2.36204C56.5101 3.95538 55.6101 4.66353 54.1701 4.516C52.8601 4.38814 52.1702 3.52262 52.2502 2.23418C52.3402 0.74903 53.3002 0.0507282 54.7502 0.188424C56.0602 0.306449 56.6601 1.20146 56.7001 2.36204Z" fill="#FC8400"/>
			 <path d="M71.4401 2.27321C71.2001 3.68951 70.46 4.437 69.15 4.2993C68.03 4.18127 67.32 3.42396 67.4 2.28305C67.49 0.984776 68.3201 0.286457 69.6301 0.404482C70.7801 0.502837 71.3001 1.33884 71.4401 2.27321Z" fill="#FC8400"/>
			 <path d="M4.19004 39.0679C4.05004 40.1989 3.44 40.9759 2.27 40.9956C0.939996 41.0251 0.140018 40.2088 0.230018 38.9105C0.310018 37.7893 1.07999 37.091 2.25999 37.1401C3.43999 37.1893 4.04004 37.9466 4.19004 39.0679Z" fill="#FC8400"/>
			 <path d="M108.8 38.8613C108.7 40.3071 108.04 41.0644 106.7 41.0743C105.53 41.0743 104.8 40.4251 104.7 39.294C104.59 38.0154 105.24 37.1794 106.58 37.0811C107.94 36.9827 108.59 37.7696 108.8 38.8613Z" fill="#FC8400"/>
			 <path d="M4.39004 53.7718C4.30004 55.1488 3.54009 55.9553 2.06009 55.9061C0.750086 55.8569 0.0100883 55.0898 8.82814e-05 53.8112C-0.00991172 52.3555 0.830076 51.5785 2.30008 51.6277C3.62008 51.6572 4.29004 52.444 4.39004 53.7718Z" fill="#FC8400"/>
			 <path d="M4.19015 68.4953C4.01015 69.6165 3.39012 70.3837 2.22012 70.3738C0.890118 70.364 0.110137 69.5378 0.240137 68.2297C0.350137 67.1282 1.1501 66.42 2.3301 66.5184C3.4801 66.6069 4.08015 67.3642 4.19015 68.4953Z" fill="#FC8400"/>
			 <path d="M108.79 68.4068C108.7 69.6854 108.05 70.4427 106.7 70.4526C105.53 70.4526 104.8 69.8034 104.7 68.6724C104.59 67.3938 105.24 66.5479 106.58 66.4594C107.91 66.3709 108.63 67.0987 108.79 68.4068Z" fill="#FC8400"/>
		   </svg>