<svg xmlns="http://www.w3.org/2000/svg" width="119" height="118" viewBox="0 0 119 118" fill="none">
					 <path d="M69.98 48.582V0.417969H21.01V48.582V96.7461H69.98H118.95V48.582H69.98Z" fill="#FC8400"/>
					 <path d="M99.94 117.41H0V19.1152H50.97V67.2793H99.94V117.41ZM2 115.443H97.94V69.2464H48.97V21.0823H2V115.443Z" fill="#0B315E"/>
					 <path d="M80.23 0.939453H77.25V42.74H80.23V0.939453Z" fill="#FFC200"/>
					 <path d="M87.82 0.929688H84.84V42.7302H87.82V0.929688Z" fill="#FFC200"/>
					 <path d="M95.4 0.939453H92.42V42.74H95.4V0.939453Z" fill="#FFC200"/>
					 <path d="M102.98 0.939453H100V42.74H102.98V0.939453Z" fill="#FFC200"/>
					 <path d="M110.56 0.929688H107.58V42.7302H110.56V0.929688Z" fill="#FFC200"/>
					 <path d="M118.05 0.939453H115.16V42.74H118.05V0.939453Z" fill="#FFC200"/>
				   </svg>